<svg xmlns="http://www.w3.org/2000/svg" viewBox="0 0 582.64 319.03999999999996" role="img" aria-label="Jane Riveros — Flujo 09 · Tu lista de correo, en serio">
<style>
.node{fill:#14243a;stroke:#2f4258;stroke-width:1.4}
.node.trig{stroke:#10b981;stroke-width:1.6}
.wire{fill:none;stroke:#10b981;stroke-opacity:.55;stroke-width:1.8}
.wire.sub{stroke-dasharray:4 4;stroke-opacity:.35}
.dot{fill:#10b981;fill-opacity:.8}
.lbl{fill:#8a94a6;font-family:Menlo,Consolas,monospace;font-size:11.5px}
</style>
<defs><pattern id="grid" width="22" height="22" patternUnits="userSpaceOnUse"><circle cx="1" cy="1" r="1" fill="#182335"/></pattern></defs>
<rect width="582.64" height="319.03999999999996" fill="#0d1626" rx="12"/><rect width="582.64" height="319.03999999999996" fill="url(#grid)" rx="12"/>
<path d="M120 152.51999999999998 C152.44 152.51999999999998, 152.44 152.51999999999998, 184.88 152.51999999999998" class="wire"/><circle cx="120" cy="152.51999999999998" r="3.2" class="dot"/><circle cx="184.88" cy="152.51999999999998" r="3.2" class="dot"/><path d="M258.88 152.51999999999998 C291.32 152.51999999999998, 291.32 93, 323.76 93" class="wire"/><circle cx="258.88" cy="152.51999999999998" r="3.2" class="dot"/><circle cx="323.76" cy="93" r="3.2" class="dot"/><path d="M258.88 152.51999999999998 C291.32 152.51999999999998, 291.32 212.04, 323.76 212.04" class="wire"/><circle cx="258.88" cy="152.51999999999998" r="3.2" class="dot"/><circle cx="323.76" cy="212.04" r="3.2" class="dot"/><path d="M397.76 93 C430.2 93, 430.2 93, 462.64 93" class="wire"/><circle cx="397.76" cy="93" r="3.2" class="dot"/><circle cx="462.64" cy="93" r="3.2" class="dot"/><g><rect x="46" y="115.52" width="74" height="74" rx="15" class="node trig"/><rect x="46" y="131.51999999999998" width="3.5" height="42" rx="1.75" fill="#10b981"/><text x="83" y="161.51999999999998" text-anchor="middle" font-size="26">⚡</text><text x="83" y="207.51999999999998" text-anchor="middle" class="lbl">Comentario nuevo</text><text x="83" y="222.51999999999998" text-anchor="middle" class="lbl">(IG / TikTok)</text></g><g><rect x="184.88" y="115.52" width="74" height="74" rx="15" class="node"/><text x="221.88" y="161.51999999999998" text-anchor="middle" font-size="26">🔀</text><text x="221.88" y="207.51999999999998" text-anchor="middle" class="lbl">¿Dice la palabra</text><text x="221.88" y="222.51999999999998" text-anchor="middle" class="lbl">clave?</text></g><g><rect x="323.76" y="56" width="74" height="74" rx="15" class="node"/><text x="360.76" y="102" text-anchor="middle" font-size="26">🌐</text><text x="360.76" y="148" text-anchor="middle" class="lbl">DM automático con</text><text x="360.76" y="163" text-anchor="middle" class="lbl">el regalo</text></g><g><rect x="462.64" y="56" width="74" height="74" rx="15" class="node"/><text x="499.64" y="102" text-anchor="middle" font-size="26">📬</text><text x="499.64" y="148" text-anchor="middle" class="lbl">Agregar a</text><text x="499.64" y="163" text-anchor="middle" class="lbl">Mailchimp +</text></g><g><rect x="323.76" y="175.04" width="74" height="74" rx="15" class="node"/><text x="360.76" y="221.04" text-anchor="middle" font-size="26">⚙️</text><text x="360.76" y="267.03999999999996" text-anchor="middle" class="lbl">Ignorar (sin</text><text x="360.76" y="282.03999999999996" text-anchor="middle" class="lbl">palabra clave)</text></g></svg>