<svg xmlns="http://www.w3.org/2000/svg" viewBox="0 0 721.52 319.03999999999996" role="img" aria-label="Jane Riveros — Flujo 04 · Un tablero, todos tus datos">
<style>
.node{fill:#14243a;stroke:#2f4258;stroke-width:1.4}
.node.trig{stroke:#10b981;stroke-width:1.6}
.wire{fill:none;stroke:#10b981;stroke-opacity:.55;stroke-width:1.8}
.wire.sub{stroke-dasharray:4 4;stroke-opacity:.35}
.dot{fill:#10b981;fill-opacity:.8}
.lbl{fill:#8a94a6;font-family:Menlo,Consolas,monospace;font-size:11.5px}
</style>
<defs><pattern id="grid" width="22" height="22" patternUnits="userSpaceOnUse"><circle cx="1" cy="1" r="1" fill="#182335"/></pattern></defs>
<rect width="721.52" height="319.03999999999996" fill="#0d1626" rx="12"/><rect width="721.52" height="319.03999999999996" fill="url(#grid)" rx="12"/>
<path d="M120 152.51999999999998 C152.44 152.51999999999998, 152.44 93, 184.88 93" class="wire"/><circle cx="120" cy="152.51999999999998" r="3.2" class="dot"/><circle cx="184.88" cy="93" r="3.2" class="dot"/><path d="M120 152.51999999999998 C152.44 152.51999999999998, 152.44 212.04, 184.88 212.04" class="wire"/><circle cx="120" cy="152.51999999999998" r="3.2" class="dot"/><circle cx="184.88" cy="212.04" r="3.2" class="dot"/><path d="M258.88 93 C291.32 93, 291.32 152.51999999999998, 323.76 152.51999999999998" class="wire"/><circle cx="258.88" cy="93" r="3.2" class="dot"/><circle cx="323.76" cy="152.51999999999998" r="3.2" class="dot"/><path d="M397.76 152.51999999999998 C430.2 152.51999999999998, 430.2 152.51999999999998, 462.64 152.51999999999998" class="wire"/><circle cx="397.76" cy="152.51999999999998" r="3.2" class="dot"/><circle cx="462.64" cy="152.51999999999998" r="3.2" class="dot"/><path d="M258.88 212.04 C291.32 212.04, 291.32 152.51999999999998, 323.76 152.51999999999998" class="wire"/><circle cx="258.88" cy="212.04" r="3.2" class="dot"/><circle cx="323.76" cy="152.51999999999998" r="3.2" class="dot"/><path d="M536.64 152.51999999999998 C569.0799999999999 152.51999999999998, 569.0799999999999 152.51999999999998, 601.52 152.51999999999998" class="wire"/><circle cx="536.64" cy="152.51999999999998" r="3.2" class="dot"/><circle cx="601.52" cy="152.51999999999998" r="3.2" class="dot"/><g><rect x="46" y="115.52" width="74" height="74" rx="15" class="node trig"/><rect x="46" y="131.51999999999998" width="3.5" height="42" rx="1.75" fill="#10b981"/><text x="83" y="161.51999999999998" text-anchor="middle" font-size="26">⏰</text><text x="83" y="207.51999999999998" text-anchor="middle" class="lbl">Cada mañana 7:00</text></g><g><rect x="184.88" y="56" width="74" height="74" rx="15" class="node"/><text x="221.88" y="102" text-anchor="middle" font-size="26">🌐</text><text x="221.88" y="148" text-anchor="middle" class="lbl">Fuente A · Ventas</text></g><g><rect x="323.76" y="115.52" width="74" height="74" rx="15" class="node"/><text x="360.76" y="161.51999999999998" text-anchor="middle" font-size="26">🔀</text><text x="360.76" y="207.51999999999998" text-anchor="middle" class="lbl">Juntar todo</text></g><g><rect x="184.88" y="175.04" width="74" height="74" rx="15" class="node"/><text x="221.88" y="221.04" text-anchor="middle" font-size="26">🌐</text><text x="221.88" y="267.03999999999996" text-anchor="middle" class="lbl">Fuente B · Pagos</text></g><g><rect x="462.64" y="115.52" width="74" height="74" rx="15" class="node"/><text x="499.64" y="161.51999999999998" text-anchor="middle" font-size="26">⚙️</text><text x="499.64" y="207.51999999999998" text-anchor="middle" class="lbl">Normalizar datos</text></g><g><rect x="601.52" y="115.52" width="74" height="74" rx="15" class="node"/><text x="638.52" y="161.51999999999998" text-anchor="middle" font-size="26">📊</text><text x="638.52" y="207.51999999999998" text-anchor="middle" class="lbl">Actualizar</text><text x="638.52" y="222.51999999999998" text-anchor="middle" class="lbl">tablero (Google</text></g></svg>