<svg xmlns="http://www.w3.org/2000/svg" viewBox="0 0 800.88 338.88" role="img" aria-label="Jane Riveros — Flujo 05 · Facturas sin tipeo">
<style>
.node{fill:#14243a;stroke:#2f4258;stroke-width:1.4}
.node.trig{stroke:#10b981;stroke-width:1.6}
.wire{fill:none;stroke:#10b981;stroke-opacity:.55;stroke-width:1.8}
.wire.sub{stroke-dasharray:4 4;stroke-opacity:.35}
.dot{fill:#10b981;fill-opacity:.8}
.lbl{fill:#8a94a6;font-family:Menlo,Consolas,monospace;font-size:11.5px}
</style>
<defs><pattern id="grid" width="22" height="22" patternUnits="userSpaceOnUse"><circle cx="1" cy="1" r="1" fill="#182335"/></pattern></defs>
<rect width="800.88" height="338.88" fill="#0d1626" rx="12"/><rect width="800.88" height="338.88" fill="url(#grid)" rx="12"/>
<path d="M120 93 C152.44 93, 152.44 93, 184.88 93" class="wire"/><circle cx="120" cy="93" r="3.2" class="dot"/><circle cx="184.88" cy="93" r="3.2" class="dot"/><path d="M258.88 93 C291.32 93, 291.32 93, 323.76 93" class="wire"/><circle cx="258.88" cy="93" r="3.2" class="dot"/><circle cx="323.76" cy="93" r="3.2" class="dot"/><path d="M397.76 93 C469.88 93, 469.88 93, 542 93" class="wire"/><circle cx="397.76" cy="93" r="3.2" class="dot"/><circle cx="542" cy="93" r="3.2" class="dot"/><path d="M410.36 268.88 L360.76 56" class="wire sub"/><path d="M616 93 C648.44 93, 648.44 93, 680.88 93" class="wire"/><circle cx="616" cy="93" r="3.2" class="dot"/><circle cx="680.88" cy="93" r="3.2" class="dot"/><g><rect x="46" y="56" width="74" height="74" rx="15" class="node trig"/><rect x="46" y="72" width="3.5" height="42" rx="1.75" fill="#10b981"/><text x="83" y="102" text-anchor="middle" font-size="26">📩</text><text x="83" y="148" text-anchor="middle" class="lbl">Llega factura al</text><text x="83" y="163" text-anchor="middle" class="lbl">correo</text></g><g><rect x="184.88" y="56" width="74" height="74" rx="15" class="node"/><text x="221.88" y="102" text-anchor="middle" font-size="26">📎</text><text x="221.88" y="148" text-anchor="middle" class="lbl">Leer PDF</text></g><g><rect x="323.76" y="56" width="74" height="74" rx="15" class="node"/><text x="360.76" y="102" text-anchor="middle" font-size="26">🧠</text><text x="360.76" y="148" text-anchor="middle" class="lbl">Extraer datos de</text><text x="360.76" y="163" text-anchor="middle" class="lbl">la factura</text></g><g><rect x="373.36" y="194.88" width="74" height="74" rx="15" class="node"/><text x="410.36" y="240.88" text-anchor="middle" font-size="26">✳️</text><text x="410.36" y="286.88" text-anchor="middle" class="lbl">Modelo IA</text><text x="410.36" y="301.88" text-anchor="middle" class="lbl">(OpenAI)</text></g><g><rect x="542" y="56" width="74" height="74" rx="15" class="node"/><text x="579" y="102" text-anchor="middle" font-size="26">📊</text><text x="579" y="148" text-anchor="middle" class="lbl">Guardar en</text><text x="579" y="163" text-anchor="middle" class="lbl">planilla contable</text></g><g><rect x="680.88" y="56" width="74" height="74" rx="15" class="node"/><text x="717.88" y="102" text-anchor="middle" font-size="26">✉️</text><text x="717.88" y="148" text-anchor="middle" class="lbl">Aviso al contador</text></g></svg>